<?xml version="1.0" standalone="no"?>
<!DOCTYPE svg PUBLIC "-//W3C//DTD SVG 20010904//EN"
 "http://www.w3.org/TR/2001/REC-SVG-20010904/DTD/svg10.dtd">
<svg version="1.0" xmlns="http://www.w3.org/2000/svg"
 width="594.000000pt" height="690.000000pt" viewBox="0 0 594.000000 690.000000"
 preserveAspectRatio="xMidYMid meet">
<metadata>
Created by potrace 1.16, written by Peter Selinger 2001-2019
</metadata>
<g transform="translate(0.000000,690.000000) scale(0.100000,-0.100000)"
fill="#000000" stroke="none">
<path d="M2420 6894 c-144 -27 -196 -39 -260 -61 -212 -72 -367 -186 -475
-349 -45 -68 -132 -289 -265 -678 -55 -159 -101 -290 -102 -292 -2 -1 -41 -19
-87 -39 -85 -37 -239 -123 -321 -178 -206 -139 -357 -330 -407 -517 -27 -101
-22 -263 11 -365 14 -44 26 -85 26 -90 0 -6 -12 -16 -28 -22 -15 -7 -83 -37
-152 -66 -210 -91 -264 -117 -288 -140 -69 -64 -88 -184 -42 -267 33 -59 85
-93 274 -176 85 -37 153 -71 150 -75 -3 -5 -31 -22 -64 -40 -90 -48 -183 -130
-224 -198 -123 -202 -152 -558 -66 -815 18 -55 41 -99 99 -191 11 -17 6 -30
-34 -100 -182 -317 -143 -842 77 -1041 22 -20 84 -56 137 -80 53 -24 103 -48
111 -53 8 -4 71 -32 140 -61 69 -28 160 -67 203 -86 42 -19 112 -49 155 -68
42 -19 140 -61 217 -94 77 -33 277 -119 445 -192 168 -73 339 -147 380 -165
41 -18 129 -56 195 -84 318 -139 615 -265 661 -281 76 -27 144 -33 215 -20 66
12 74 16 1424 618 352 157 678 302 725 323 47 20 141 63 210 94 69 31 148 66
175 78 173 75 224 121 245 221 24 119 -32 229 -146 283 -42 20 -54 54 -54 147
0 97 22 186 52 209 55 43 81 73 105 121 24 47 25 58 20 147 -4 78 -1 106 14
150 21 61 23 119 6 167 -19 50 -77 117 -130 148 -54 32 -69 68 -69 165 0 96
20 167 55 197 96 83 127 141 127 237 0 119 -53 183 -202 246 -54 23 -100 44
-103 48 -2 4 38 25 88 47 188 80 229 105 262 158 26 43 30 59 30 120 0 61 -4
78 -30 119 -27 44 -41 54 -140 101 -60 29 -199 91 -307 137 l-197 84 17 25
c147 223 175 299 176 475 0 106 -3 129 -27 200 -74 209 -284 388 -607 515 -58
23 -106 43 -107 43 -1 1 -15 54 -31 117 -17 63 -45 169 -62 235 -87 330 -137
447 -228 526 -50 44 -158 112 -210 132 -78 31 -224 58 -361 67 -157 10 -216
20 -361 60 -149 42 -342 81 -545 110 -75 11 -454 22 -495 14z m1380 -334 c-19
-4 -71 -16 -115 -25 -233 -51 -421 -127 -867 -350 -136 -68 -277 -133 -314
-144 -81 -25 -202 -28 -265 -6 -48 17 -102 64 -125 107 -20 38 -17 45 9 20 72
-67 214 -81 359 -36 46 15 159 65 253 111 466 234 755 323 1070 330 29 1 28 1
-5 -7z m768 -1357 c74 -342 75 -345 58 -399 -21 -67 -101 -155 -208 -228 l-83
-57 -7 90 c-12 145 -44 248 -105 328 l-24 31 57 32 c84 48 193 139 244 203 25
31 47 56 50 57 3 0 11 -26 18 -57z m-2876 -179 c222 -146 564 -247 961 -285
192 -18 665 -6 832 20 72 11 134 21 138 21 12 0 62 -119 81 -191 19 -77 20
-122 5 -223 -13 -85 -4 -78 -129 -100 -391 -71 -750 -83 -1110 -36 -583 76
-1065 336 -1063 575 0 44 67 376 80 398 3 5 34 -23 69 -61 35 -39 96 -92 136
-118z m2420 -141 c56 -61 90 -174 92 -308 1 -124 -18 -173 -82 -208 -61 -33
-175 -74 -227 -82 -65 -9 -68 -3 -54 111 15 120 3 201 -44 320 -18 43 -31 86
-29 96 4 19 71 50 172 77 107 28 141 27 172 -6z m1276 -1440 c-12 -27 -74 -64
-169 -102 -18 -8 -82 -36 -141 -62 -91 -42 -222 -98 -443 -191 -27 -11 -91
-40 -141 -64 -50 -23 -147 -65 -215 -92 -68 -28 -173 -73 -234 -102 -60 -28
-175 -79 -253 -111 -79 -33 -169 -72 -200 -88 -32 -16 -75 -34 -97 -41 -22 -6
-70 -27 -106 -46 -37 -18 -102 -47 -145 -64 -44 -17 -97 -39 -119 -49 -141
-64 -169 -60 -479 73 -138 59 -302 131 -365 161 -64 29 -192 86 -286 125 -93
40 -264 114 -380 165 -115 51 -232 102 -260 113 -132 52 -283 115 -410 172
-77 34 -180 79 -230 100 -49 21 -104 50 -122 65 -30 24 -33 31 -33 80 0 30 2
55 4 55 2 0 156 -66 343 -146 186 -81 379 -163 428 -184 50 -21 126 -53 170
-72 364 -159 472 -206 550 -238 85 -36 195 -84 575 -250 202 -88 232 -99 295
-110 104 -17 113 -14 670 229 116 51 365 159 555 241 190 82 548 236 795 343
l450 194 3 -38 c2 -22 -3 -51 -10 -66z m55 -380 c-8 -38 -18 -71 -22 -74 -3
-4 -53 -28 -111 -54 -58 -25 -139 -61 -180 -79 -41 -19 -92 -41 -113 -50 -63
-27 -957 -417 -1137 -497 -275 -121 -683 -299 -766 -334 l-102 -43 24 60 c13
34 31 69 39 78 17 19 144 83 210 106 22 8 58 23 80 34 22 10 85 39 140 63 55
25 146 66 202 91 56 25 105 46 108 46 8 0 116 47 225 97 41 19 122 54 180 78
139 57 195 81 255 110 63 31 224 101 273 119 20 8 129 55 242 106 113 51 254
112 315 137 60 25 118 51 129 59 11 8 21 14 22 14 1 0 -5 -30 -13 -67z m-30
-294 c-8 -7 -137 -65 -553 -246 -107 -47 -247 -107 -310 -135 -63 -28 -167
-73 -230 -100 -63 -28 -184 -81 -268 -119 -84 -38 -155 -69 -157 -69 -2 0
-122 -52 -267 -116 -145 -64 -288 -126 -318 -139 -30 -12 -91 -38 -135 -58
-44 -19 -102 -44 -128 -56 l-48 -21 3 61 3 61 90 40 c118 51 400 174 595 258
393 171 469 204 520 227 30 14 127 57 215 95 270 118 512 223 680 296 88 38
194 85 235 104 l75 34 3 -54 c2 -30 -1 -58 -5 -63z m53 -144 l21 -54 -101 -42
c-56 -22 -105 -45 -111 -49 -5 -4 -64 -30 -130 -58 -66 -28 -159 -68 -205 -90
-47 -21 -123 -54 -170 -72 -47 -19 -104 -44 -127 -57 -23 -13 -99 -46 -170
-74 -70 -28 -157 -66 -193 -84 -36 -18 -111 -52 -165 -75 -138 -58 -303 -130
-410 -180 -49 -23 -169 -75 -265 -115 -96 -41 -206 -90 -245 -109 -38 -20 -79
-36 -91 -36 -22 0 -53 29 -73 68 -11 21 -9 24 41 46 29 13 235 104 458 201
223 97 443 194 490 215 47 21 114 50 150 65 36 16 108 47 161 71 112 50 289
128 739 323 179 77 332 145 340 150 27 17 35 11 56 -44z m-26 -677 l-17 -72
-99 -44 c-223 -98 -428 -188 -584 -257 -199 -88 -372 -165 -580 -255 -187 -82
-462 -203 -585 -258 -328 -147 -548 -242 -552 -239 -6 6 27 98 45 125 15 23
54 44 172 92 30 13 100 44 155 71 55 26 142 64 194 84 52 19 100 40 106 45 6
5 94 45 196 89 226 97 324 140 454 198 286 129 387 173 396 173 5 0 35 13 67
29 31 16 118 54 192 86 160 68 445 196 456 204 1 1 -7 -31 -16 -71z m-27 -289
c-4 -4 -159 -73 -343 -154 -469 -205 -454 -199 -565 -248 -55 -25 -215 -96
-355 -157 -256 -113 -388 -171 -665 -295 -82 -37 -170 -75 -195 -85 -25 -10
-100 -43 -168 -73 l-123 -55 3 61 3 61 150 67 c83 36 260 114 395 173 135 59
265 116 290 128 25 11 122 54 215 95 171 75 245 108 800 353 165 73 329 145
365 160 36 15 94 41 130 57 l65 30 3 -55 c2 -30 -1 -58 -5 -63z m51 -136 c9
-26 16 -48 16 -49 0 -8 -116 -67 -171 -88 -35 -13 -140 -60 -234 -104 -93 -43
-192 -87 -220 -97 -27 -10 -121 -51 -207 -92 -87 -40 -192 -87 -235 -104 -43
-16 -145 -61 -228 -99 -257 -116 -328 -148 -381 -169 -28 -10 -118 -51 -200
-89 -82 -38 -192 -86 -244 -107 -52 -21 -129 -55 -170 -76 -41 -22 -82 -39
-91 -39 -20 0 -55 37 -68 72 -10 26 -9 27 67 58 42 18 115 49 162 70 47 21
146 65 220 98 74 33 311 137 525 232 215 94 441 194 504 221 63 28 131 57 150
67 104 49 768 341 778 341 6 1 18 -20 27 -46z"/>
</g>
</svg>
